# xmcd
#
# Track frame offsets:
#	187
#	15612
#	32240
#	45497
#	58492
#	74770
#	87017
#	101320
#	116427
#	134422
#
# Disc length: 2029 seconds
#
# Revision: 3801170
# Processed by: cddbd v1.5.2PL0 Copyright (c) Steve Scherf et al.
# Submitted via: EZCDAudioConverter 9.1.1.1
#
DISCID=8707eb0a
DTITLE=Mark Collie
DYEAR=1993
DGENRE=Country
TTITLE0=Trouble's Coming Like A Train
TTITLE1=Even The Man In The Moon Is Cryin'
TTITLE2=Shame Shame Shame Shame
TTITLE3=Keep It Up
TTITLE4=Something's Gonna Change Her Mind
TTITLE5=The Heart Of The Matter
TTITLE6=Born To Love You
TTITLE7=Linda Lou
TTITLE8=Is That Too Much To Ask?
TTITLE9=Hillbilly Boy With The Rock 'n' Roll Blues
EXTD=
EXTT0=
EXTT1=
EXTT2=
EXTT3=
EXTT4=
EXTT5=
EXTT6=
EXTT7=
EXTT8=
EXTT9=
PLAYORDER=
